<svg id="visual" viewBox="0 0 960 540" width="960" height="540" xmlns="http://www.w3.org/2000/svg" xmlns:xlink="http://www.w3.org/1999/xlink" version="1.1"><path d="M186 0L192.3 22.5C198.7 45 211.3 90 215 135C218.7 180 213.3 225 209.3 270C205.3 315 202.7 360 208.5 405C214.3 450 228.7 495 235.8 517.5L243 540L0 540L0 517.5C0 495 0 450 0 405C0 360 0 315 0 270C0 225 0 180 0 135C0 90 0 45 0 22.5L0 0Z" fill="#66bdff"></path><path d="M139 0L138.3 22.5C137.7 45 136.3 90 141 135C145.7 180 156.3 225 157.5 270C158.7 315 150.3 360 149.8 405C149.3 450 156.7 495 160.3 517.5L164 540L0 540L0 517.5C0 495 0 450 0 405C0 360 0 315 0 270C0 225 0 180 0 135C0 90 0 45 0 22.5L0 0Z" fill="#53aefb"></path><path d="M95 0L96.5 22.5C98 45 101 90 107.7 135C114.3 180 124.7 225 123.8 270C123 315 111 360 109.8 405C108.7 450 118.3 495 123.2 517.5L128 540L0 540L0 517.5C0 495 0 450 0 405C0 360 0 315 0 270C0 225 0 180 0 135C0 90 0 45 0 22.5L0 0Z" fill="#449ef5"></path><path d="M61 0L57.5 22.5C54 45 47 90 45.8 135C44.7 180 49.3 225 53.2 270C57 315 60 360 59.8 405C59.7 450 56.3 495 54.7 517.5L53 540L0 540L0 517.5C0 495 0 450 0 405C0 360 0 315 0 270C0 225 0 180 0 135C0 90 0 45 0 22.5L0 0Z" fill="#3a8eee"></path></svg>